<svg width="96" height="96" viewBox="0 0 96 96" fill="none" xmlns="http://www.w3.org/2000/svg" role="img" aria-labelledby="title desc">
  <title id="title">learnifyops mark</title>
  <desc id="desc">A lightbulb with orbit line inspired by the learnifyops company logo.</desc>
  <defs>
    <linearGradient id="bulbGold" x1="38" y1="8" x2="62" y2="82" gradientUnits="userSpaceOnUse">
      <stop stop-color="#E1B958"/>
      <stop offset="1" stop-color="#A96816"/>
    </linearGradient>
    <linearGradient id="orbitBlue" x1="5" y1="65" x2="91" y2="30" gradientUnits="userSpaceOnUse">
      <stop stop-color="#35D4C6"/>
      <stop offset="0.52" stop-color="#0F8CA6"/>
      <stop offset="1" stop-color="#113E72"/>
    </linearGradient>
  </defs>
  <path d="M57.5 78c0 4-4.2 7.5-9.5 7.5S38.5 82 38.5 78h19Z" fill="url(#bulbGold)"/>
  <path d="M37.8 67h21.4M40 73h17" stroke="#A96816" stroke-width="4.8" stroke-linecap="round"/>
  <path d="M37.5 61.2c-1-7.3-7-15.2-7.9-25.8C28.3 20.5 39.1 9.5 48 9.5c13.2 0 24 10.9 23 25.6-.8 10.3-7.2 18.4-8.6 26.1" stroke="url(#bulbGold)" stroke-width="6.2" stroke-linecap="round"/>
  <path d="M42 51.5V39.7c0-3.6 2.6-5.7 5.3-5.7 2.8 0 4.6 1.8 4.6 4.4 0 4.3-4.5 6.6-9.9 5.7M52.8 51.5V39.7c0-3.6 2.6-5.7 5.3-5.7 2.8 0 4.6 1.8 4.6 4.4 0 4.3-4.5 6.6-9.9 5.7" stroke="#9A661C" stroke-width="3.9" stroke-linecap="round" stroke-linejoin="round"/>
  <path d="M8 58.8C32 68 70.2 55.4 86 28.2" stroke="url(#orbitBlue)" stroke-width="7" stroke-linecap="round"/>
  <path d="M3.8 64C31.5 75.8 75.6 59.4 91.7 33.5" stroke="#0B5C86" stroke-width="4.2" stroke-linecap="round" opacity="0.92"/>
  <path d="M43 4.6 40.5 1M58.5 4.4 61.2 1M72 13.9 77.6 9.5M78.4 29.9h7M24.2 13.6 18.8 9.2M19.8 30.6h-7.2" stroke="#D3AC43" stroke-width="4.4" stroke-linecap="round"/>
</svg>
